<svg width="26" height="26" viewBox="0 0 26 26" fill="none" xmlns="http://www.w3.org/2000/svg">
<g clip-path="url(#clip0_1_1298)">
<path d="M21.164 22.2039L17.056 18.0959C17.7667 17.2639 18.3213 16.3236 18.72 15.2749C19.1187 14.2262 19.318 13.1386 19.318 12.0119C19.318 10.2959 18.8847 8.70124 18.018 7.22791C17.186 5.78924 16.0507 4.64524 14.612 3.79591C13.1387 2.92924 11.5353 2.49591 9.80201 2.49591C8.06868 2.49591 6.46534 2.92924 4.99201 3.79591C3.55334 4.62791 2.40934 5.75458 1.56001 7.17591C0.693343 8.66658 0.26001 10.2742 0.26001 11.9989C0.26001 13.7236 0.693343 15.3226 1.56001 16.7959C2.39201 18.2346 3.51868 19.3786 4.94001 20.2279C6.43068 21.1119 8.04268 21.5539 9.77601 21.5539C10.9027 21.5539 11.9903 21.3546 13.039 20.9559C14.0877 20.5572 15.028 20.0026 15.86 19.2919L19.968 23.3999C20.02 23.4519 20.098 23.4996 20.202 23.5429C20.306 23.5862 20.41 23.6079 20.514 23.6079C20.618 23.6079 20.722 23.5862 20.826 23.5429C20.93 23.4996 21.008 23.4519 21.06 23.3999C21.268 23.1919 21.3763 22.9839 21.385 22.7759C21.3937 22.5679 21.32 22.3772 21.164 22.2039ZM1.97601 11.9079C1.97601 10.4866 2.33134 9.16924 3.04201 7.95591C3.73534 6.79458 4.66268 5.86724 5.82401 5.17391C7.03734 4.46325 8.35468 4.10791 9.77601 4.10791C11.1973 4.10791 12.5147 4.47191 13.728 5.19991C14.9067 5.89324 15.8427 6.83791 16.536 8.03391C17.2293 9.22991 17.576 10.5299 17.576 11.9339C17.576 13.3379 17.212 14.6466 16.484 15.8599C15.7907 17.0386 14.846 17.9746 13.65 18.6679C12.454 19.3612 11.1627 19.7079 9.77601 19.7079C8.37201 19.7426 7.05468 19.4046 5.82401 18.6939C4.66268 18.0179 3.73101 17.0732 3.02901 15.8599C2.32701 14.6466 1.97601 13.3292 1.97601 11.9079Z" fill="black"/>
</g>
<defs>
<clipPath id="clip0_1_1298">
<rect width="26" height="26" fill="white" transform="matrix(1 0 0 -1 0 26)"/>
</clipPath>
</defs>
</svg>
