<svg width="28" height="28" viewBox="0 0 28 28" fill="none" xmlns="http://www.w3.org/2000/svg">
<path d="M22.3432 16.436C21.1299 16.3054 20.1219 16.0347 19.3192 15.624C18.7405 15.4 18.1479 15.358 17.5412 15.498C16.9345 15.638 16.3979 15.9134 15.9312 16.324L14.8672 17.5C12.5152 15.9694 10.5739 14.028 9.0432 11.676L10.1072 10.612C10.5552 10.164 10.8399 9.6367 10.9612 9.03004C11.0825 8.42337 11.0312 7.82137 10.8072 7.22404C10.4712 6.3467 10.2379 5.33871 10.1072 4.20004C9.97653 3.4347 9.59853 2.79537 8.9732 2.28204C8.34787 1.76871 7.63387 1.51204 6.8312 1.51204H3.1072C2.52853 1.54937 2.01053 1.73604 1.5532 2.07204C1.09587 2.40804 0.741199 2.83737 0.489199 3.36004C0.237199 3.8827 0.129866 4.43337 0.167199 5.01204C0.353866 6.8787 0.764532 8.70337 1.3992 10.486C2.03387 12.2687 2.87387 13.944 3.9192 15.512C5.78587 18.4614 8.19387 20.8694 11.1432 22.736C12.7299 23.7254 14.4099 24.5374 16.1832 25.172C17.9565 25.8067 19.7765 26.2454 21.6432 26.488H22.0072C22.3992 26.488 22.7912 26.404 23.1832 26.236C23.5752 26.068 23.9205 25.8394 24.2192 25.55C24.5179 25.2607 24.7465 24.92 24.9052 24.528C25.0639 24.136 25.1432 23.7347 25.1432 23.324V19.824C25.1432 18.9654 24.8819 18.2187 24.3592 17.584C23.8365 16.9494 23.1645 16.5667 22.3432 16.436ZM23.2672 19.712V23.212C23.2672 23.604 23.1179 23.9587 22.8192 24.276C22.4832 24.5747 22.1285 24.724 21.7552 24.724H21.6432C19.9259 24.556 18.2552 24.1827 16.6312 23.604C14.9512 23.0067 13.3925 22.2134 11.9552 21.224C10.6299 20.3654 9.3932 19.362 8.2452 18.214C7.0972 17.066 6.08453 15.82 5.2072 14.476C4.27387 13.02 3.5132 11.4707 2.9252 9.82804C2.3372 8.18537 1.9312 6.50537 1.7072 4.78804C1.7632 4.35871 1.9312 3.99937 2.2112 3.71004C2.4912 3.4207 2.8272 3.27604 3.2192 3.27604H6.8312C7.18587 3.27604 7.50787 3.40204 7.7972 3.65404C8.08653 3.90604 8.2312 4.20004 8.2312 4.53604C8.26853 5.02137 8.36187 5.5627 8.5112 6.16004C8.60453 6.53337 8.75387 7.07471 8.9592 7.78404L9.0432 8.03604C9.1552 8.33471 9.1832 8.61937 9.1272 8.89004C9.0712 9.1607 8.9312 9.38937 8.7072 9.57604L7.4192 10.976C7.2512 11.088 7.1532 11.242 7.1252 11.438C7.0972 11.634 7.1112 11.8254 7.1672 12.012C8.04453 13.524 9.1132 14.91 10.3732 16.17C11.6332 17.43 13.0192 18.4987 14.5312 19.376C14.6992 19.488 14.8859 19.5254 15.0912 19.488C15.2965 19.4507 15.4552 19.3667 15.5672 19.236L17.1072 17.724C17.2939 17.5374 17.5365 17.4067 17.8352 17.332C18.1339 17.2574 18.3952 17.276 18.6192 17.388C19.7019 17.8174 20.8685 18.088 22.1192 18.2C22.4739 18.256 22.7725 18.438 23.0152 18.746C23.2579 19.054 23.3419 19.376 23.2672 19.712ZM14.8672 3.13604C16.3792 3.28537 17.7512 3.75204 18.9832 4.53604C20.2152 5.32004 21.2232 6.32804 22.0072 7.56004C22.7912 8.79204 23.2579 10.164 23.4072 11.676C23.4072 11.9 23.4959 12.0914 23.6732 12.25C23.8505 12.4087 24.0325 12.488 24.2192 12.488H24.3312C24.5552 12.488 24.7465 12.39 24.9052 12.194C25.0639 11.998 25.1432 11.7787 25.1432 11.536C24.9565 9.78137 24.3872 8.1667 23.4352 6.69204C22.5205 5.25471 21.3305 4.0787 19.8652 3.16404C18.3999 2.24937 16.7805 1.6987 15.0072 1.51204C14.7645 1.51204 14.5452 1.59137 14.3492 1.75004C14.1532 1.9087 14.0552 2.0907 14.0552 2.29604C14.0552 2.50137 14.1345 2.69271 14.2932 2.87004C14.4519 3.04737 14.6432 3.13604 14.8672 3.13604ZM14.0552 6.88804C13.9992 7.11204 14.0459 7.3267 14.1952 7.53204C14.3445 7.73737 14.5312 7.86804 14.7552 7.92404C15.7259 8.1107 16.5705 8.56804 17.2892 9.29604C18.0079 10.024 18.4885 10.892 18.7312 11.9C18.7872 12.124 18.8899 12.2967 19.0392 12.418C19.1885 12.5394 19.3565 12.6 19.5432 12.6H19.6552C19.8979 12.544 20.0892 12.4134 20.2292 12.208C20.3692 12.0027 20.4112 11.7787 20.3552 11.536C20.1312 10.2107 19.5385 9.0627 18.5772 8.09204C17.6159 7.12137 16.4632 6.4867 15.1192 6.18804C14.8765 6.13204 14.6525 6.16471 14.4472 6.28604C14.2419 6.40737 14.1112 6.60804 14.0552 6.88804Z" fill="#111827"/>
</svg>
