<svg width="14" height="15" viewBox="0 0 14 15" fill="none" xmlns="http://www.w3.org/2000/svg">
<path d="M7.008 3.40811C6.35733 3.40811 5.75733 3.57078 5.208 3.89611C4.65867 4.22145 4.22133 4.65878 3.896 5.20811C3.57067 5.75745 3.408 6.35745 3.408 7.00811C3.408 7.65878 3.57067 8.25878 3.896 8.80811C4.22133 9.35745 4.65867 9.79211 5.208 10.1121C5.75733 10.4321 6.35733 10.5921 7.008 10.5921C7.65867 10.5921 8.25867 10.4321 8.808 10.1121C9.35733 9.79211 9.792 9.35745 10.112 8.80811C10.432 8.25878 10.592 7.65878 10.592 7.00811C10.592 6.35745 10.432 5.75745 10.112 5.20811C9.792 4.65878 9.35733 4.22145 8.808 3.89611C8.25867 3.57078 7.65867 3.40811 7.008 3.40811ZM7.008 9.34411C6.58133 9.34411 6.18933 9.24011 5.832 9.03211C5.47467 8.82411 5.192 8.53878 4.984 8.17611C4.776 7.81345 4.672 7.42411 4.672 7.00811C4.672 6.59211 4.776 6.20278 4.984 5.84011C5.192 5.47745 5.47467 5.19211 5.832 4.98411C6.18933 4.77611 6.58133 4.67211 7.008 4.67211C7.43467 4.67211 7.82667 4.77611 8.184 4.98411C8.54133 5.19211 8.824 5.47478 9.032 5.83211C9.24 6.18945 9.344 6.58145 9.344 7.00811C9.344 7.43478 9.24 7.82678 9.032 8.18411C8.824 8.54145 8.53867 8.82411 8.176 9.03211C7.81333 9.24011 7.424 9.34411 7.008 9.34411ZM11.584 3.26411C11.584 3.49878 11.5013 3.69878 11.336 3.86411C11.1707 4.02945 10.9707 4.11211 10.736 4.11211C10.5013 4.11211 10.304 4.02945 10.144 3.86411C9.984 3.69878 9.904 3.49878 9.904 3.26411C9.904 3.02945 9.984 2.83211 10.144 2.67211C10.304 2.51211 10.5013 2.43211 10.736 2.43211C10.9707 2.43211 11.1707 2.51211 11.336 2.67211C11.5013 2.83211 11.584 3.02945 11.584 3.26411ZM13.952 4.11211C13.9307 3.50411 13.84 2.97611 13.68 2.52811C13.4987 2.01611 13.2133 1.56811 12.824 1.18411C12.4347 0.800113 11.984 0.517446 11.472 0.336113C11.024 0.176112 10.496 0.0801125 9.888 0.0481129C9.312 0.0161123 8.34933 0.000112534 7 0.000112534C5.65067 0.000112534 4.688 0.0161123 4.112 0.0481129C3.49333 0.0801125 2.96533 0.176112 2.528 0.336113C2.016 0.517446 1.568 0.800113 1.184 1.18411C0.8 1.56811 0.517333 2.01611 0.336 2.52811C0.165333 2.97611 0.0693333 3.50411 0.048 4.11211C0.016 4.68811 0 5.65078 0 7.00011C0 8.34945 0.016 9.31211 0.048 9.88811C0.0693333 10.4961 0.16 11.0241 0.32 11.4721C0.501333 11.9841 0.789333 12.4374 1.184 12.8321C1.57867 13.2268 2.032 13.5094 2.544 13.6801C2.97067 13.8401 3.49333 13.9308 4.112 13.9521C4.688 13.9948 5.65067 14.0161 7 14.0161C8.34933 14.0161 9.312 13.9948 9.888 13.9521C10.496 13.9308 11.024 13.8401 11.472 13.6801C11.984 13.4988 12.4347 13.2134 12.824 12.8241C13.2133 12.4348 13.4987 11.9841 13.68 11.4721C13.84 11.0241 13.9307 10.4961 13.952 9.88811C13.984 9.31211 14 8.35211 14 7.00811C14 5.66411 13.984 4.69878 13.952 4.11211ZM12.464 11.1361C12.3467 11.4348 12.1733 11.7014 11.944 11.9361C11.7147 12.1708 11.4453 12.3468 11.136 12.4641C10.784 12.6028 10.2133 12.6934 9.424 12.7361C8.976 12.7574 8.33067 12.7628 7.488 12.7521H6.528C5.68533 12.7628 5.04 12.7574 4.592 12.7361C3.792 12.6934 3.22133 12.6028 2.88 12.4641C2.57067 12.3468 2.30133 12.1734 2.072 11.9441C1.84267 11.7148 1.66933 11.4454 1.552 11.1361C1.41333 10.7841 1.32267 10.2134 1.28 9.42411C1.25867 8.97611 1.25333 8.33078 1.264 7.48811V6.52811C1.25333 5.68545 1.25867 5.04011 1.28 4.59211C1.32267 3.79211 1.41333 3.22145 1.552 2.88011C1.66933 2.57078 1.84267 2.30145 2.072 2.07211C2.30133 1.84278 2.57067 1.66945 2.88 1.55211C3.22133 1.41345 3.78667 1.32278 4.576 1.28011C5.024 1.25878 5.67467 1.25345 6.528 1.26411H7.488C8.33067 1.25345 8.976 1.25878 9.424 1.28011C10.2133 1.32278 10.784 1.41345 11.136 1.55211C11.4453 1.66945 11.7147 1.84278 11.944 2.07211C12.1733 2.30145 12.3467 2.57078 12.464 2.88011C12.6027 3.22145 12.6933 3.78678 12.736 4.57611C12.7573 5.02411 12.7627 5.67478 12.752 6.52811V7.48811C12.7627 8.33078 12.7573 8.97611 12.736 9.42411C12.6933 10.2134 12.6027 10.7841 12.464 11.1361Z" fill="#FD1D1D"/>
</svg>
