<svg width="18" height="17" viewBox="0 0 18 17" fill="none" xmlns="http://www.w3.org/2000/svg">
<path d="M12.9236 0C12.1552 0 11.42 0.166257 10.718 0.498769C10.016 0.831281 9.42857 1.27832 8.95567 1.8399C8.49754 1.24877 7.92118 0.794335 7.2266 0.476601C6.53202 0.158868 5.78571 0 4.98768 0C4.08621 0 3.24384 0.221674 2.46059 0.665025C1.7069 1.0936 1.10837 1.67734 0.665025 2.41626C0.221675 3.15517 0 3.9532 0 4.81035C0 6.42118 0.435961 8.00985 1.30788 9.57636C2.00246 10.8325 2.97044 12.0517 4.21182 13.234C5.09852 14.0911 6.08867 14.8818 7.18227 15.6059C7.86207 16.0788 8.36453 16.3892 8.68966 16.5369C8.74877 16.5961 8.83744 16.6256 8.95567 16.6256C9.07389 16.6256 9.19951 16.5961 9.33251 16.5369C9.68719 16.3596 10.1897 16.0493 10.8399 15.6059C11.9187 14.8818 12.9089 14.0911 13.8103 13.234C15.0369 12.0517 15.9975 10.8325 16.6921 9.57636C17.564 8.00985 18 6.42118 18 4.81035C18 3.9532 17.7709 3.15517 17.3128 2.41626C16.8547 1.67734 16.234 1.0899 15.4507 0.653941C14.6675 0.21798 13.8251 0 12.9236 0ZM8.95567 15.1404C8.00985 14.564 7.13793 13.9507 6.3399 13.3005C4.93596 12.1626 3.82759 10.9877 3.01478 9.77586C1.92118 8.16503 1.37438 6.53941 1.37438 4.89902C1.37438 4.26355 1.54064 3.67611 1.87315 3.1367C2.20567 2.59729 2.64901 2.16872 3.2032 1.85099C3.75739 1.53325 4.35222 1.37438 4.98768 1.37438C5.7266 1.37438 6.39532 1.5665 6.99384 1.95074C7.59237 2.33498 8.03202 2.85222 8.31281 3.50246C8.37192 3.65025 8.48645 3.75369 8.6564 3.81281C8.82636 3.87192 9.0037 3.87192 9.18842 3.81281C9.37315 3.75369 9.50985 3.65025 9.59852 3.50246C9.87931 2.85222 10.3227 2.33498 10.9286 1.95074C11.5345 1.5665 12.1995 1.37438 12.9236 1.37438C13.5887 1.37438 14.1983 1.53325 14.7525 1.85099C15.3067 2.16872 15.7426 2.59729 16.0603 3.1367C16.3781 3.67611 16.5369 4.26355 16.5369 4.89902C16.5369 6.50985 15.9901 8.12069 14.8966 9.73153C14.069 10.9434 12.9606 12.1256 11.5714 13.2783C10.7438 13.9581 9.87192 14.5788 8.95567 15.1404Z" fill="#030712"/>
</svg>
