<svg width="14" height="14" viewBox="0 0 14 14" fill="none" xmlns="http://www.w3.org/2000/svg">
<g clip-path="url(#clip0_1_164)">
<path d="M12.5008 9.37256L11.168 8.61464L12.3178 7.93518C12.5269 7.80451 12.6053 7.53011 12.4746 7.32104C12.357 7.11198 12.0827 7.03358 11.8605 7.16424L10.2794 8.09198L7.88824 6.71998L10.2794 5.33491L11.8605 6.27571C11.9389 6.31491 12.0173 6.34104 12.0957 6.34104C12.2394 6.34104 12.3962 6.26264 12.4746 6.11891C12.6053 5.90984 12.5269 5.63544 12.3178 5.50478L11.168 4.82531L12.5008 4.06744C12.7098 3.93678 12.7752 3.66238 12.6576 3.45331C12.54 3.24424 12.2656 3.16584 12.0435 3.28344L10.7237 4.05438L10.7107 2.72158C10.7107 2.47331 10.5016 2.27731 10.2664 2.27731C10.0181 2.27731 9.82212 2.48638 9.82212 2.73464L9.83518 4.56398L7.44397 5.94904V3.19198L9.05117 2.29038C9.26024 2.15971 9.33864 1.88531 9.22104 1.67624C9.09037 1.46718 8.82904 1.38878 8.60691 1.50638L7.44397 2.15971V0.630912C7.44397 0.382646 7.24797 0.186646 6.99971 0.186646C6.75144 0.186646 6.55544 0.382646 6.55544 0.630912V2.15971L5.39251 1.50638C5.18344 1.38878 4.90904 1.46718 4.77837 1.67624C4.66077 1.88531 4.73917 2.15971 4.94824 2.29038L6.55544 3.19198V5.94904L4.16424 4.56398L4.17731 2.73464C4.19037 2.48638 3.98131 2.27731 3.74611 2.27731C3.73304 2.27731 3.73304 2.27731 3.73304 2.27731C3.49784 2.27731 3.28877 2.47331 3.28877 2.72158L3.27571 4.05438L1.95597 3.28344C1.73384 3.16584 1.45944 3.24424 1.34184 3.45331C1.22424 3.66238 1.28957 3.93678 1.51171 4.06744L2.83144 4.82531L1.68157 5.50478C1.47251 5.63544 1.39411 5.90984 1.52477 6.11891C1.60317 6.26264 1.75997 6.34104 1.90371 6.34104C1.98211 6.34104 2.06051 6.31491 2.13891 6.27571L3.71997 5.33491L6.11117 6.71998L3.71997 8.10504L2.13891 7.16424C1.91677 7.03358 1.65544 7.11198 1.52477 7.32104C1.39411 7.53011 1.47251 7.80451 1.68157 7.93518L2.83144 8.61464L1.51171 9.37256C1.28957 9.50322 1.22424 9.77762 1.34184 9.98669C1.42024 10.1304 1.57704 10.2088 1.73384 10.2088C1.79917 10.2088 1.87757 10.1958 1.95597 10.1435L3.27571 9.38562L3.28877 10.7184C3.28877 10.9667 3.49784 11.1627 3.73304 11.1627C3.73304 11.1627 3.73304 11.1627 3.74611 11.1627C3.98131 11.1627 4.19037 10.9536 4.17731 10.7054L4.16424 8.87598L6.55544 7.49091V10.248L4.94824 11.1496C4.73917 11.2803 4.66077 11.5547 4.77837 11.7638C4.86984 11.9075 5.01357 11.9859 5.17037 11.9859C5.24877 11.9859 5.32717 11.9728 5.39251 11.9336L6.55544 11.2803V12.8091C6.55544 13.0574 6.75144 13.2534 6.99971 13.2534C7.24797 13.2534 7.44397 13.0574 7.44397 12.8091V11.2803L8.60691 11.9336C8.67224 11.9728 8.75064 11.9859 8.82904 11.9859C8.98584 11.9859 9.12957 11.9075 9.22104 11.7638C9.33864 11.5547 9.26024 11.2803 9.05117 11.1496L7.44397 10.248V7.49091L9.83518 8.87598L9.82212 10.7054C9.82212 10.9536 10.0181 11.1627 10.2533 11.1627C10.2664 11.1627 10.2664 11.1627 10.2664 11.1627C10.5146 11.1627 10.7107 10.9667 10.7107 10.7184L10.7237 9.38562L12.0435 10.1435C12.1219 10.1958 12.2002 10.2088 12.2656 10.2088C12.4224 10.2088 12.5792 10.1304 12.6576 9.98669C12.7752 9.77762 12.7098 9.50322 12.5008 9.37256Z" fill="#0891B2"/>
</g>
<defs>
<clipPath id="clip0_1_164">
<rect width="14" height="14" fill="white"/>
</clipPath>
</defs>
</svg>
