<svg width="64" height="15" viewBox="0 0 64 15" fill="none" xmlns="http://www.w3.org/2000/svg">
<g clip-path="url(#clip0_1_1273)">
<mask id="mask0_1_1273" style="mask-type:luminance" maskUnits="userSpaceOnUse" x="0" y="0" width="64" height="15">
<path d="M63.2 0.600342H0.5V14.6003H63.2V0.600342Z" fill="white"/>
</mask>
<g mask="url(#mask0_1_1273)">
<path d="M11.6 0.600342H8.59995C8.59995 3.10034 7.39995 5.40034 5.39995 6.90034L4.19995 7.90034L8.89995 14.3003H12.8L8.39995 8.40034C10.5 6.40034 11.6 3.60034 11.6 0.600342Z" fill="black"/>
<path d="M3.79995 0.600342H0.699951V14.3003H3.79995V0.600342Z" fill="black"/>
<path d="M16.7 0.600342H13.7V14.3003H16.7V0.600342Z" fill="black"/>
<path d="M42.5999 4.60034C41.4999 4.60034 40.3999 4.90034 39.6999 5.90034V4.90034H36.8999V14.3003H39.7999V9.30034C39.7999 7.90034 40.7999 7.20034 41.8999 7.20034C43.0999 7.20034 43.8999 7.90034 43.8999 9.30034V14.3003H46.6999V8.30034C46.5999 6.10034 44.8999 4.60034 42.5999 4.60034Z" fill="black"/>
<path d="M25.5999 4.90034V5.50034C24.7999 4.90034 23.7999 4.60034 22.7999 4.60034C19.9999 4.60034 17.7999 6.80034 17.7999 9.60034C17.7999 12.4003 19.9999 14.6003 22.7999 14.6003C23.7999 14.6003 24.7999 14.3003 25.5999 13.7003V14.3003H28.3999V4.90034H25.5999ZM22.9999 12.0003C21.5999 12.0003 20.3999 10.9003 20.3999 9.60034C20.3999 8.30034 21.4999 7.20034 22.9999 7.20034C24.4999 7.20034 25.5999 8.30034 25.5999 9.60034C25.5999 10.9003 24.3999 12.0003 22.9999 12.0003Z" fill="black"/>
<path d="M32.7999 6.10039V4.90039H29.8999V14.3004H32.7999V9.90039C32.7999 8.40039 34.3999 7.60039 35.4999 7.60039V4.90039C34.3999 4.90039 33.3999 5.30039 32.7999 6.10039Z" fill="black"/>
<path d="M55.4 4.90034V5.50034C54.6 4.90034 53.7 4.60034 52.6 4.60034C49.8 4.60034 47.6 6.80034 47.6 9.60034C47.6 12.4003 49.8 14.6003 52.6 14.6003C53.6 14.6003 54.6 14.3003 55.4 13.7003V14.3003H58.2V4.90034H55.4ZM52.9 12.0003C51.5 12.0003 50.3 10.9003 50.3 9.60034C50.3 8.30034 51.4 7.20034 52.9 7.20034C54.3 7.20034 55.5 8.30034 55.5 9.60034C55.4 10.9003 54.3 12.0003 52.9 12.0003Z" fill="black"/>
<path d="M60.4 5.10039C60.4 5.00039 60.3 4.90039 60.2 4.90039H59.9V5.60039H60V5.40039H60.1L60.3 5.60039H60.4L60.3 5.30039C60.4 5.30039 60.4 5.20039 60.4 5.10039ZM60.2 5.20039H60.1V5.00039H60.2C60.3 5.00039 60.3 5.00039 60.3 5.10039C60.3 5.20039 60.3 5.20039 60.2 5.20039Z" fill="black"/>
<path d="M60.2 4.60034C59.8 4.60034 59.5 4.90034 59.5 5.30034C59.5 5.70034 59.8 6.00034 60.2 6.00034C60.6 6.00034 60.9 5.70034 60.9 5.30034C60.9 4.90034 60.5 4.60034 60.2 4.60034ZM60.2 5.80034C59.9 5.80034 59.7 5.60034 59.7 5.20034C59.7 4.90034 59.9 4.60034 60.2 4.60034C60.5 4.60034 60.7 4.80034 60.7 5.20034C60.7 5.60034 60.4 5.80034 60.2 5.80034Z" fill="black"/>
<path d="M61.3 11.0002C60.3 11.0002 59.5 11.8002 59.5 12.8002C59.5 13.8002 60.3 14.6002 61.3 14.6002C62.3 14.6002 63.1 13.8002 63.1 12.8002C63.1 11.7002 62.3 11.0002 61.3 11.0002Z" fill="black"/>
</g>
</g>
<defs>
<clipPath id="clip0_1_1273">
<rect width="64" height="15" fill="white"/>
</clipPath>
</defs>
</svg>
