<svg width="53" height="15" viewBox="0 0 53 15" fill="none" xmlns="http://www.w3.org/2000/svg">
<g clip-path="url(#clip0_1_1256)">
<mask id="mask0_1_1256" style="mask-type:luminance" maskUnits="userSpaceOnUse" x="0" y="0" width="53" height="15">
<path d="M52.5 0.600342H0V14.6003H52.5V0.600342Z" fill="white"/>
</mask>
<g mask="url(#mask0_1_1256)">
<path d="M6.63747 0.712891H2.61247C2.33747 0.712891 2.09997 0.912882 2.06247 1.18788L0.437472 11.4878C0.399972 11.6878 0.562472 11.8753 0.774972 11.8753H2.69997C2.97497 11.8753 3.21247 11.6754 3.24997 11.4004L3.68747 8.62538C3.72497 8.35038 3.96247 8.15039 4.23747 8.15039H5.49997C8.14997 8.15039 9.67497 6.8754 10.075 4.3254C10.25 3.2129 10.0875 2.33789 9.56247 1.72539C8.98747 1.07539 7.97497 0.712891 6.63747 0.712891ZM7.09997 4.48789C6.87497 5.92539 5.77497 5.92539 4.71247 5.92539H4.09997L4.52497 3.23789C4.54997 3.07539 4.68747 2.9504 4.84997 2.9504H5.12497C5.84997 2.9504 6.53747 2.95039 6.88747 3.36289C7.11247 3.61289 7.17497 3.97539 7.09997 4.48789Z" fill="#283B82"/>
<path d="M18.65 4.43799H16.725C16.5625 4.43799 16.425 4.563 16.4 4.7255L16.3125 5.26301L16.175 5.06299C15.7625 4.46299 14.825 4.25049 13.9 4.25049C11.775 4.25049 9.9625 5.86299 9.6 8.12549C9.4125 9.25049 9.675 10.3255 10.3125 11.088C10.9 11.7755 11.7375 12.0629 12.7375 12.0629C14.45 12.0629 15.4 10.963 15.4 10.963L15.3125 11.5004C15.275 11.7004 15.4375 11.888 15.6375 11.888H17.375C17.65 11.888 17.8875 11.688 17.925 11.413L18.9625 4.82551C19.0125 4.62551 18.85 4.43799 18.65 4.43799ZM15.9625 8.18799C15.775 9.28799 14.9 10.0255 13.7875 10.0255C13.225 10.0255 12.7875 9.85049 12.5 9.50049C12.2125 9.16299 12.1125 8.688 12.2 8.1505C12.375 7.063 13.2625 6.3005 14.3625 6.3005C14.9125 6.3005 15.35 6.48801 15.65 6.82551C15.925 7.16301 16.05 7.65049 15.9625 8.18799Z" fill="#283B82"/>
<path d="M28.9 4.43774H26.9625C26.775 4.43774 26.6 4.52524 26.5 4.68774L23.8375 8.61275L22.7125 4.83775C22.6375 4.60025 22.425 4.43774 22.175 4.43774H20.275C20.05 4.43774 19.8875 4.66274 19.9625 4.87524L22.0875 11.1252L20.0875 13.9502C19.925 14.1752 20.0875 14.4752 20.3625 14.4752H22.3C22.4875 14.4752 22.65 14.3877 22.7625 14.2377L29.2 4.95026C29.325 4.73776 29.1625 4.43774 28.9 4.43774Z" fill="#283B82"/>
<path d="M35.3 0.712891H31.275C31 0.712891 30.7625 0.912882 30.725 1.18788L29.1 11.4878C29.0625 11.6878 29.225 11.8753 29.425 11.8753H31.5C31.6875 11.8753 31.85 11.7378 31.8875 11.5503L32.35 8.62538C32.3875 8.35038 32.625 8.15039 32.9 8.15039H34.175C36.825 8.15039 38.35 6.8754 38.75 4.3254C38.925 3.2129 38.7625 2.33789 38.2375 1.72539C37.6625 1.07539 36.65 0.712891 35.3 0.712891ZM35.7625 4.48789C35.5375 5.92539 34.4375 5.92539 33.375 5.92539H32.775L33.2 3.23789C33.225 3.07539 33.3625 2.9504 33.525 2.9504H33.8C34.525 2.9504 35.2125 2.95039 35.5625 3.36289C35.775 3.61289 35.8375 3.97539 35.7625 4.48789Z" fill="#469BDB"/>
<path d="M47.3125 4.43799H45.3875C45.225 4.43799 45.0875 4.563 45.0625 4.7255L44.975 5.26301L44.8375 5.06299C44.425 4.46299 43.4875 4.25049 42.5625 4.25049C40.4375 4.25049 38.625 5.86299 38.2625 8.12549C38.075 9.25049 38.3375 10.3255 38.975 11.088C39.5625 11.7755 40.4 12.0629 41.4 12.0629C43.1125 12.0629 44.0625 10.963 44.0625 10.963L43.975 11.5004C43.9375 11.7004 44.1 11.888 44.3125 11.888H46.05C46.325 11.888 46.5625 11.688 46.6 11.413L47.6375 4.82551C47.675 4.62551 47.5125 4.43799 47.3125 4.43799ZM44.625 8.18799C44.4375 9.28799 43.5625 10.0255 42.45 10.0255C41.8875 10.0255 41.45 9.85049 41.1625 9.50049C40.875 9.16299 40.775 8.688 40.8625 8.1505C41.0375 7.063 41.925 6.3005 43.025 6.3005C43.575 6.3005 44.0125 6.48801 44.3125 6.82551C44.6 7.16301 44.7125 7.65049 44.625 8.18799Z" fill="#469BDB"/>
<path d="M49.575 1.00022L47.925 11.5002C47.8875 11.7002 48.05 11.8877 48.25 11.8877H49.9125C50.1875 11.8877 50.425 11.6877 50.4625 11.4127L52.0875 1.11273C52.125 0.912724 51.9625 0.725227 51.7625 0.725227H49.9C49.75 0.712727 49.6125 0.837721 49.575 1.00022Z" fill="#469BDB"/>
</g>
</g>
<defs>
<clipPath id="clip0_1_1256">
<rect width="53" height="15" fill="white"/>
</clipPath>
</defs>
</svg>
