<svg width="23" height="16" viewBox="0 0 23 16" fill="none" xmlns="http://www.w3.org/2000/svg">
<g clip-path="url(#clip0_1_988)">
<path d="M13.192 7.53595H9.04801V3.32795C9.04801 3.18928 9.00001 3.06662 8.90401 2.95995C8.80801 2.85328 8.68001 2.79995 8.52001 2.79995C8.36001 2.79995 8.23201 2.85328 8.13601 2.95995C8.04001 3.06662 7.99201 3.18928 7.99201 3.32795V7.47195H3.84801C3.70934 7.47195 3.58667 7.51995 3.48001 7.61595C3.37334 7.71195 3.32001 7.84262 3.32001 8.00795C3.32001 8.17328 3.36801 8.30128 3.46401 8.39195C3.56001 8.48262 3.68801 8.52795 3.84801 8.52795H7.99201V12.672C7.99201 12.8106 8.04001 12.9333 8.13601 13.04C8.23201 13.1466 8.36267 13.2 8.52801 13.2C8.69334 13.2 8.82134 13.152 8.91201 13.056C9.00267 12.96 9.04801 12.832 9.04801 12.672V8.52795H13.192C13.3307 8.52795 13.4533 8.47995 13.56 8.38395C13.6667 8.28795 13.72 8.15995 13.72 7.99995C13.72 7.83995 13.6693 7.72262 13.568 7.64795C13.4667 7.57328 13.3413 7.53595 13.192 7.53595Z" fill="#634C9F"/>
</g>
<defs>
<clipPath id="clip0_1_988">
<rect width="16" height="16" fill="white" transform="matrix(1 0 0 -1 3.19 16)"/>
</clipPath>
</defs>
</svg>
