<svg width="11" height="11" viewBox="0 0 11 11" fill="none" xmlns="http://www.w3.org/2000/svg">
<path d="M10.4415 5.00924H6.05845V0.558485C6.05845 0.41182 6.00768 0.282076 5.90614 0.169255C5.8046 0.0564353 5.66922 2.52173e-05 5.49999 2.52173e-05C5.33076 2.52173e-05 5.19537 0.0564353 5.09383 0.169255C4.9923 0.282076 4.94153 0.41182 4.94153 0.558485V4.94155H0.55846C0.411794 4.94155 0.282051 4.99232 0.16923 5.09386C0.0564101 5.1954 0 5.3336 0 5.50847C0 5.68335 0.0507691 5.81873 0.152307 5.91463C0.253846 6.01052 0.38923 6.05847 0.55846 6.05847H4.94153V10.4415C4.94153 10.5882 4.9923 10.7179 5.09383 10.8308C5.19537 10.9436 5.33358 11 5.50845 11C5.68332 11 5.8187 10.9492 5.9146 10.8477C6.0105 10.7462 6.05845 10.6108 6.05845 10.4415V6.05847H10.4415C10.5882 6.05847 10.7179 6.0077 10.8307 5.90617C10.9436 5.80463 11 5.66924 11 5.50001C11 5.33078 10.9464 5.20668 10.8392 5.12771C10.732 5.04873 10.5995 5.00924 10.4415 5.00924Z" fill="white"/>
</svg>
