<svg width="24" height="15" viewBox="0 0 24 15" fill="none" xmlns="http://www.w3.org/2000/svg">
<g clip-path="url(#clip0_1_1248)">
<mask id="mask0_1_1248" style="mask-type:luminance" maskUnits="userSpaceOnUse" x="0" y="0" width="24" height="16">
<path d="M24 0.200195H0V15.0002H24V0.200195Z" fill="white"/>
</mask>
<g mask="url(#mask0_1_1248)">
<path d="M7.4 15.0002C11.4869 15.0002 14.8 11.6871 14.8 7.6002C14.8 3.51329 11.4869 0.200195 7.4 0.200195C3.31309 0.200195 0 3.51329 0 7.6002C0 11.6871 3.31309 15.0002 7.4 15.0002Z" fill="#DD3D31"/>
<path d="M16.6 15.0002C20.6869 15.0002 24 11.6871 24 7.6002C24 3.51329 20.6869 0.200195 16.6 0.200195C12.5131 0.200195 9.20001 3.51329 9.20001 7.6002C9.20001 11.6871 12.5131 15.0002 16.6 15.0002Z" fill="#EEB046"/>
<path fill-rule="evenodd" clip-rule="evenodd" d="M12 13.5001C15.2 11.0001 15.8 6.30005 13.3 3.10005C12.9 2.60005 12.5 2.20005 12 1.80005C8.79996 4.30005 8.19996 9.00005 10.7 12.2001C11.1 12.7001 11.5 13.1001 12 13.5001Z" fill="#EF7D2F"/>
</g>
</g>
<defs>
<clipPath id="clip0_1_1248">
<rect width="24" height="15" fill="white"/>
</clipPath>
</defs>
</svg>
