<svg width="24" height="24" viewBox="0 0 24 24" fill="none" xmlns="http://www.w3.org/2000/svg">
<path d="M8.968 1.296C7.384 1.296 5.912 1.696 4.552 2.496C3.224 3.264 2.168 4.312 1.384 5.64C0.568004 7.016 0.160004 8.504 0.160004 10.104C0.160004 11.816 0.744004 13.632 1.912 15.552C2.792 17.008 3.968 18.48 5.44 19.968C6.24 20.768 7.152 21.6 8.176 22.464L8.464 22.704C8.512 22.752 8.584 22.796 8.68 22.836C8.776 22.876 8.876 22.896 8.98 22.896C9.084 22.896 9.172 22.884 9.244 22.86C9.316 22.836 9.392 22.784 9.472 22.704L9.76 22.464C10.784 21.6 11.696 20.768 12.496 19.968C13.968 18.48 15.144 17.008 16.024 15.552C17.192 13.632 17.776 11.816 17.776 10.104C17.776 8.504 17.368 7.016 16.552 5.64C15.768 4.312 14.712 3.264 13.384 2.496C12.024 1.696 10.552 1.296 8.968 1.296ZM8.968 21C8.12 20.312 7.256 19.52 6.376 18.624C5.08 17.264 4.048 15.936 3.28 14.64C2.272 12.96 1.768 11.416 1.768 10.008C1.768 8.696 2.096 7.48 2.752 6.36C3.376 5.272 4.232 4.416 5.32 3.792C6.44 3.136 7.656 2.808 8.968 2.808C10.28 2.808 11.496 3.144 12.616 3.816C13.704 4.456 14.568 5.328 15.208 6.432C15.848 7.536 16.168 8.728 16.168 10.008C16.168 11.464 15.664 13.032 14.656 14.712C13.888 15.992 12.856 17.304 11.56 18.648C10.712 19.512 9.848 20.296 8.968 21ZM8.968 6.288C8.28 6.288 7.648 6.46 7.072 6.804C6.496 7.148 6.036 7.612 5.692 8.196C5.348 8.78 5.176 9.416 5.176 10.104C5.176 10.792 5.348 11.428 5.692 12.012C6.036 12.596 6.496 13.056 7.072 13.392C7.648 13.728 8.28 13.896 8.968 13.896C9.656 13.896 10.292 13.724 10.876 13.38C11.46 13.036 11.92 12.576 12.256 12C12.592 11.424 12.76 10.792 12.76 10.104C12.76 9.416 12.592 8.78 12.256 8.196C11.92 7.612 11.46 7.148 10.876 6.804C10.292 6.46 9.656 6.288 8.968 6.288ZM8.968 12.288C8.36 12.288 7.84 12.072 7.408 11.64C6.976 11.208 6.76 10.696 6.76 10.104C6.76 9.704 6.86 9.336 7.06 9C7.26 8.664 7.528 8.396 7.864 8.196C8.2 7.996 8.568 7.896 8.968 7.896C9.368 7.896 9.736 7.996 10.072 8.196C10.408 8.396 10.676 8.664 10.876 9C11.076 9.336 11.176 9.704 11.176 10.104C11.176 10.696 10.96 11.208 10.528 11.64C10.096 12.072 9.576 12.288 8.968 12.288Z" fill="#030712"/>
</svg>
