<svg width="20" height="14" viewBox="0 0 20 14" fill="none" xmlns="http://www.w3.org/2000/svg">
<g clip-path="url(#clip0_1_43)">
<path d="M15.454 6.81796C15.454 6.78996 15.4423 6.76429 15.419 6.74096C15.3956 6.71762 15.37 6.70596 15.342 6.70596L13.004 4.36796C12.9106 4.28396 12.8033 4.24196 12.682 4.24196C12.5606 4.24196 12.4533 4.28396 12.36 4.36796C12.2666 4.45196 12.2223 4.55929 12.227 4.68996C12.2316 4.82062 12.276 4.92796 12.36 5.01196L13.942 6.59396H3.37197C3.25064 6.59396 3.14331 6.63596 3.04997 6.71996C2.95664 6.80396 2.90997 6.91829 2.90997 7.06296C2.90997 7.20762 2.95197 7.31962 3.03597 7.39896C3.11997 7.47829 3.23197 7.51796 3.37197 7.51796H13.998L12.416 9.09996C12.332 9.18396 12.29 9.28896 12.29 9.41496C12.29 9.54096 12.332 9.65062 12.416 9.74396C12.444 9.77196 12.486 9.79762 12.542 9.82096C12.598 9.84429 12.654 9.85596 12.71 9.85596C12.766 9.85596 12.822 9.84429 12.878 9.82096C12.934 9.79762 12.976 9.77196 13.004 9.74396L15.342 7.40596C15.3606 7.38729 15.3793 7.36396 15.398 7.33596C15.4166 7.30796 15.4353 7.29396 15.454 7.29396C15.482 7.17262 15.496 7.07929 15.496 7.01396C15.496 6.94862 15.482 6.88329 15.454 6.81796Z" fill="#212529"/>
</g>
<defs>
<clipPath id="clip0_1_43">
<rect width="14" height="14" fill="white" transform="matrix(1 0 0 -1 2.78998 14)"/>
</clipPath>
</defs>
</svg>
