<svg width="30" height="18" viewBox="0 0 30 18" fill="none" xmlns="http://www.w3.org/2000/svg">
<g clip-path="url(#clip0_1_26)">
<path d="M26.5964 17.487C26.5964 17.485 26.5752 17.4831 26.5328 17.4815C26.4904 17.4798 26.4437 17.479 26.3928 17.479L22.1417 17.312C21.972 17.306 21.7768 17.303 21.5562 17.303C21.3356 17.303 21.1404 17.306 20.9707 17.312C20.801 17.318 20.7204 17.3256 20.7289 17.335C20.7373 17.3443 20.818 17.352 20.9707 17.358L23.8472 17.471H4.62804C4.40742 17.471 4.21226 17.474 4.04255 17.48C3.87285 17.486 3.78799 17.4941 3.78799 17.5045C3.78799 17.5148 3.86436 17.5228 4.0171 17.5285C4.16983 17.5341 4.37348 17.537 4.62804 17.537H23.949L21.0725 17.65C20.9198 17.656 20.8434 17.6635 20.8434 17.6725C20.8434 17.6815 20.9198 17.6893 21.0725 17.696C21.1234 17.698 21.1998 17.6998 21.3016 17.7015C21.4034 17.7031 21.5053 17.704 21.6071 17.704C21.7089 17.704 21.8107 17.7031 21.9126 17.7015C22.0144 17.6998 22.0907 17.698 22.1417 17.696L26.3928 17.529C26.4267 17.5276 26.4607 17.526 26.4946 17.524C26.5285 17.522 26.5625 17.521 26.5964 17.521C26.6473 17.5123 26.6728 17.5056 26.6728 17.501C26.6728 17.4963 26.6473 17.4916 26.5964 17.487Z" fill="white"/>
</g>
<defs>
<clipPath id="clip0_1_26">
<rect width="25.4558" height="1" fill="white" transform="matrix(1 0 0 -1 3.59 18)"/>
</clipPath>
</defs>
</svg>
