<svg width="26" height="26" viewBox="0 0 26 26" fill="none" xmlns="http://www.w3.org/2000/svg">
<path d="M12.614 11.102C11.782 11.6394 10.8807 11.908 9.91 11.908C9.26867 11.908 8.649 11.7824 8.051 11.531C7.453 11.2797 6.92434 10.9287 6.465 10.478C6.00567 10.0274 5.65467 9.50304 5.412 8.90504C5.16934 8.30704 5.048 7.68738 5.048 7.04604C5.048 6.04071 5.321 5.13071 5.867 4.31604C6.413 3.50138 7.13234 2.90771 8.025 2.53504C8.91767 2.16238 9.86667 2.07137 10.872 2.26204C11.808 2.43538 12.6313 2.87304 13.342 3.57504C14.0527 4.27704 14.499 5.10904 14.681 6.07104C14.863 7.03304 14.772 7.97338 14.408 8.89204C14.044 9.81071 13.446 10.5474 12.614 11.102ZM11.418 4.78404C10.9673 4.48938 10.4647 4.34204 9.91 4.34204C9.182 4.34204 8.54067 4.60204 7.986 5.12204C7.466 5.67671 7.206 6.31804 7.206 7.04604C7.206 7.60071 7.35767 8.10338 7.661 8.55404C7.96434 9.00471 8.36734 9.33404 8.87 9.54204C9.37267 9.75004 9.89267 9.80204 10.43 9.69804C10.9673 9.59404 11.431 9.34704 11.821 8.95704C12.211 8.56704 12.458 8.10338 12.562 7.56604C12.666 7.02871 12.614 6.50871 12.406 6.00604C12.198 5.50338 11.8687 5.09604 11.418 4.78404ZM3.02 15.86C3.92134 14.9414 4.97 14.235 6.166 13.741C7.362 13.247 8.61 13 9.91 13C11.21 13 12.458 13.247 13.654 13.741C14.85 14.235 15.903 14.937 16.813 15.847C17.723 16.757 18.425 17.81 18.919 19.006C19.413 20.202 19.66 21.45 19.66 22.75C19.66 23.062 19.5473 23.322 19.322 23.53C19.0967 23.738 18.8453 23.842 18.568 23.842H13.16C12.8653 23.842 12.6097 23.7337 12.393 23.517C12.1763 23.3004 12.068 23.0447 12.068 22.75C12.068 22.4554 12.1763 22.1997 12.393 21.983C12.6097 21.7664 12.8653 21.658 13.16 21.658H17.424C17.2853 20.7567 16.9993 19.903 16.566 19.097C16.1327 18.291 15.5693 17.5934 14.876 17.004C14.1827 16.4147 13.4113 15.9597 12.562 15.639C11.7127 15.3184 10.8287 15.158 9.91 15.158C8.99134 15.158 8.10734 15.3184 7.258 15.639C6.40867 15.9597 5.63734 16.4147 4.944 17.004C4.25067 17.5934 3.68734 18.291 3.254 19.097C2.82067 19.903 2.53467 20.7567 2.396 21.658H6.66C6.93734 21.658 7.19734 21.762 7.44 21.97C7.648 22.2127 7.752 22.4727 7.752 22.75C7.752 23.0274 7.648 23.2874 7.44 23.53C7.19734 23.738 6.93734 23.842 6.66 23.842H1.252C0.97467 23.842 0.723337 23.738 0.498004 23.53C0.27267 23.322 0.160004 23.062 0.160004 22.75C0.160004 21.45 0.407004 20.2064 0.901004 19.019C1.395 17.8317 2.10134 16.7787 3.02 15.86Z" fill="#030712"/>
</svg>
