<svg width="26" height="1" viewBox="0 0 26 1" fill="none" xmlns="http://www.w3.org/2000/svg">
<path d="M18.6675 -6.09195e-08C17.5575 -6.09195e-08 16.4955 0.00766542 15.4815 0.0229963C14.4676 0.0383271 13.619 0.0589386 12.936 0.0848306C12.2742 0.0575758 11.4417 0.0366237 10.4384 0.0219742C9.43514 0.0073247 8.35714 -6.09195e-08 7.20443 -6.09195e-08C5.9023 -6.09195e-08 4.68555 0.0102206 3.55419 0.0306617C2.46552 0.0504214 1.60099 0.0773356 0.960591 0.111404C0.320197 0.145473 0 0.182267 0 0.221786C0 0.296056 0.629721 0.369303 1.88916 0.441528C2.89245 0.499445 4.29064 0.555658 6.08374 0.610168C7.36453 0.649687 8.79475 0.686141 10.3744 0.719528C11.3563 0.741332 12.0821 0.755641 12.5517 0.762454C12.6371 0.76518 12.7652 0.766542 12.936 0.766542C13.1067 0.766542 13.2882 0.76518 13.4803 0.762454C13.9926 0.754278 14.7184 0.739969 15.6576 0.719528C17.2159 0.686141 18.6461 0.649687 19.9483 0.610168C21.72 0.555658 23.1076 0.499445 24.1108 0.441528C25.3703 0.369303 26 0.296056 26 0.221786C26 0.182267 25.6691 0.145473 25.0074 0.111404C24.3456 0.0773356 23.4491 0.0502511 22.3177 0.0301506C21.1864 0.0100502 19.9696 -6.09195e-08 18.6675 -6.09195e-08ZM12.936 0.698065C11.5698 0.671491 10.3103 0.643214 9.15764 0.613234C7.12972 0.560768 5.52874 0.506599 4.35468 0.450727C2.77504 0.376457 1.98522 0.301507 1.98522 0.225874C1.98522 0.196576 2.22537 0.169491 2.70567 0.144621C3.18596 0.119751 3.82635 0.0999911 4.62685 0.0853417C5.42734 0.0706922 6.28654 0.0633675 7.20443 0.0633675C8.27176 0.0633675 9.23769 0.0722253 10.1022 0.0899409C10.9667 0.107657 11.6018 0.131505 12.0074 0.161485C12.0928 0.168299 12.2582 0.173068 12.5037 0.175794C12.7492 0.178519 13.0053 0.178519 13.2722 0.175794C13.539 0.173068 13.7365 0.168299 13.8645 0.161485C14.2701 0.131505 14.9105 0.107657 15.7857 0.0899409C16.6609 0.0722253 17.6215 0.0633675 18.6675 0.0633675C19.6281 0.0633675 20.5086 0.0706922 21.3091 0.0853417C22.1096 0.0999911 22.7393 0.119751 23.1983 0.144621C23.6572 0.169491 23.8867 0.196576 23.8867 0.225874C23.8867 0.300144 23.0969 0.374413 21.5172 0.448683C20.3218 0.504555 18.7209 0.559065 16.7143 0.612212C15.5189 0.643555 14.2594 0.672173 12.936 0.698065Z" fill="#030712"/>
</svg>
