<svg width="14" height="14" viewBox="0 0 14 14" fill="none" xmlns="http://www.w3.org/2000/svg">
<g clip-path="url(#clip0_1_1092)">
<path d="M7.15399 1.162C6.73399 1.162 6.34432 1.267 5.98499 1.477C5.62566 1.687 5.34099 1.97167 5.13099 2.331C4.92099 2.69033 4.81599 3.08 4.81599 3.5H3.62599C3.62599 2.86533 3.78232 2.27967 4.09499 1.743C4.40766 1.20633 4.83232 0.781666 5.36899 0.469C5.90566 0.156333 6.49132 0 7.12599 0C7.76066 0 8.34632 0.156333 8.88299 0.469C9.41966 0.781666 9.84433 1.20633 10.157 1.743C10.4697 2.27967 10.626 2.86533 10.626 3.5H12.922C13.258 3.5 13.5427 3.619 13.776 3.857C14.0093 4.095 14.126 4.38667 14.126 4.732C14.126 4.80667 14.1213 4.87667 14.112 4.942L12.81 12.474C12.7353 12.9127 12.53 13.2767 12.194 13.566C11.858 13.8553 11.4707 14 11.032 14H3.21999C2.78132 14 2.39399 13.8553 2.05799 13.566C1.72199 13.2767 1.51666 12.9127 1.44199 12.474L0.139991 4.956C0.0839905 4.62 0.151657 4.312 0.342991 4.032C0.534324 3.752 0.793324 3.57933 1.11999 3.514C1.18532 3.50467 1.25532 3.5 1.32999 3.5H9.49199C9.49199 3.08 9.38699 2.69033 9.17699 2.331C8.96699 1.97167 8.68232 1.687 8.32299 1.477C7.96366 1.267 7.57399 1.162 7.15399 1.162ZM12.922 4.662H1.32999C1.32066 4.662 1.30666 4.68067 1.28799 4.718V4.746L2.58999 12.278C2.61799 12.4273 2.68332 12.5533 2.78599 12.656C2.88866 12.7587 3.00999 12.8147 3.14999 12.824L3.21999 12.838H11.032C11.172 12.838 11.3003 12.7937 11.417 12.705C11.5337 12.6163 11.6107 12.4973 11.648 12.348L12.964 4.732C12.964 4.69467 12.9547 4.676 12.936 4.676L12.922 4.662Z" fill="white"/>
</g>
<defs>
<clipPath id="clip0_1_1092">
<rect width="14" height="14" fill="white" transform="matrix(1 0 0 -1 0 14)"/>
</clipPath>
</defs>
</svg>
