<svg width="15" height="1" viewBox="0 0 15 1" fill="none" xmlns="http://www.w3.org/2000/svg">
<path d="M14.2385 0.301905H8.26154V0.0336804C8.26154 0.0248416 8.19231 0.0170226 8.05384 0.0102235C7.91538 0.00342441 7.73077 2.48626e-05 7.5 2.48626e-05C7.26923 2.48626e-05 7.08461 0.00342441 6.94615 0.0102235C6.80769 0.0170226 6.73846 0.0248416 6.73846 0.0336804V0.297826H0.761538C0.561538 0.297826 0.384615 0.300885 0.230769 0.307004C0.0769231 0.313124 0 0.321452 0 0.331991C0 0.34253 0.0692308 0.350689 0.207692 0.356468C0.346154 0.362247 0.530769 0.365137 0.761538 0.365137H6.73846V0.629282C6.73846 0.638121 6.80769 0.64594 6.94615 0.652739C7.08461 0.659538 7.27308 0.662937 7.51154 0.662937C7.75 0.662937 7.93461 0.659878 8.06538 0.653759C8.19615 0.647639 8.26154 0.63948 8.26154 0.629282V0.365137H14.2385C14.4385 0.365137 14.6154 0.362077 14.7692 0.355958C14.9231 0.349839 15 0.34168 15 0.331481C15 0.321282 14.9269 0.313803 14.7808 0.309044C14.6346 0.304285 14.4538 0.301905 14.2385 0.301905Z" fill="white"/>
</svg>
