<svg width="41" height="15" viewBox="0 0 41 15" fill="none" xmlns="http://www.w3.org/2000/svg">
<g clip-path="url(#clip0_1_1267)">
<mask id="mask0_1_1267" style="mask-type:luminance" maskUnits="userSpaceOnUse" x="0" y="0" width="41" height="15">
<path d="M40.5 0.600342H0.5V14.6003H40.5V0.600342Z" fill="white"/>
</mask>
<g mask="url(#mask0_1_1267)">
<path d="M29.3 4.00029C30.2 4.00029 30.9 3.30029 30.9 2.40029C30.9 1.50029 30.2 0.800293 29.3 0.800293C28.4 0.800293 27.7 1.50029 27.7 2.40029C27.6 3.30029 28.3 4.00029 29.3 4.00029C29.3 4.10029 29.3 4.10029 29.3 4.00029ZM16.7 4.90029C16.6 5.10029 16.1 6.60029 14.8 8.20029V1.50029L11.4 2.20029V14.3003H14.8V10.6003C15.8 12.1003 16.3 14.3003 16.3 14.3003H20.4C20 12.6003 18.2 9.50029 18.2 9.50029C19.3 8.10029 20.1 6.60029 20.6 5.00029L16.7 4.90029ZM25.7 4.80029C22.6 4.90029 21.1 6.30029 21.1 9.00029V14.3003H24.5V10.0003C24.5 8.40029 24.7 7.70029 26.7 7.60029V4.90029C26.3 4.80029 25.7 4.80029 25.7 4.80029ZM5.6 6.30029C5.2 6.30029 4.2 6.20029 4.2 5.30029C4.2 4.20029 5.6 4.20029 6.1 4.20029C7 4.20029 8.2 4.50029 9.1 4.70029C9.4 4.80029 9.7 4.90029 10 5.00029V2.20029H9.9C8.9 1.80029 7.7 1.50029 5.5 1.50029C1.8 1.50029 0.5 3.70029 0.5 5.60029C0.5 6.70029 1 9.20029 5.3 9.50029C5.7 9.50029 6.6 9.60029 6.6 10.5003C6.6 11.2003 5.8 11.7003 4.5 11.7003C3 11.7003 1.6 11.3003 0.8 11.0003V14.0003C2.1 14.3003 3.5 14.5003 5.2 14.5003C8.9 14.5003 10.5 12.4003 10.5 10.4003C10.5 8.00029 8.7 6.50029 5.6 6.30029ZM27.6 14.3003H30.9V4.90029H27.6V14.3003ZM37.2 2.10029V14.3003H40.5V1.50029L37.2 2.10029ZM32.3 2.10029L35.6 1.50029V14.3003H32.3V2.10029Z" fill="#862565"/>
</g>
</g>
<defs>
<clipPath id="clip0_1_1267">
<rect width="41" height="15" fill="white"/>
</clipPath>
</defs>
</svg>
