<svg width="20" height="20" viewBox="0 0 20 20" fill="none" xmlns="http://www.w3.org/2000/svg">
<path d="M15.82 2.73997H2.5C2.08667 2.73997 1.7 2.83997 1.34 3.03997C0.980004 3.23997 0.693337 3.5133 0.480004 3.85997C0.26667 4.20663 0.160004 4.58663 0.160004 4.99997V15C0.160004 15.4133 0.263337 15.8 0.470004 16.16C0.67667 16.52 0.95667 16.8066 1.31 17.02C1.66334 17.2333 2.06 17.34 2.5 17.34H15.82C16.2333 17.34 16.62 17.2366 16.98 17.03C17.34 16.8233 17.6267 16.5433 17.84 16.19C18.0533 15.8366 18.16 15.44 18.16 15V4.99997C18.16 4.58663 18.0533 4.20663 17.84 3.85997C17.6267 3.5133 17.34 3.23997 16.98 3.03997C16.62 2.83997 16.2333 2.73997 15.82 2.73997ZM2.5 3.99997H15.82C16.1133 3.99997 16.3533 4.09997 16.54 4.29997C16.7267 4.49997 16.82 4.7333 16.82 4.99997V5.49997L9.66 10.08C9.48667 10.16 9.30667 10.2 9.12 10.2C8.93334 10.2 8.75334 10.16 8.58 10.08L1.5 5.49997V4.99997C1.5 4.70663 1.59334 4.46663 1.78 4.27997C1.96667 4.0933 2.20667 3.99997 2.5 3.99997ZM15.82 16.08H2.5C2.22 16.08 1.98334 15.9766 1.79 15.77C1.59667 15.5633 1.5 15.3333 1.5 15.08V6.99997L8 11.16C8.28 11.3866 8.66667 11.5 9.16 11.5C9.65334 11.5 10.04 11.3866 10.32 11.16L16.82 6.99997V15C16.82 15.2933 16.7267 15.5466 16.54 15.76C16.3533 15.9733 16.1133 16.08 15.82 16.08Z" fill="#9CA3AF"/>
</svg>
