<svg width="14" height="14" viewBox="0 0 14 14" fill="none" xmlns="http://www.w3.org/2000/svg">
<path d="M3.136 14H0.24V4.656H3.136V14ZM1.68 3.376C1.38133 3.376 1.10133 3.29867 0.84 3.144C0.578667 2.98933 0.373333 2.784 0.224 2.528C0.0746667 2.272 0 1.98933 0 1.68C0 1.37067 0.0746667 1.088 0.224 0.832001C0.373333 0.576 0.576 0.373334 0.832 0.224C1.088 0.0746674 1.37067 0 1.68 0C1.98933 0 2.272 0.0746674 2.528 0.224C2.784 0.373334 2.98667 0.576 3.136 0.832001C3.28533 1.088 3.36 1.37067 3.36 1.68C3.36 1.98933 3.28533 2.272 3.136 2.528C2.98667 2.784 2.78133 2.98933 2.52 3.144C2.25867 3.29867 1.97867 3.376 1.68 3.376ZM14 14H11.104V9.456C11.104 8.96533 11.0827 8.592 11.04 8.336C10.976 7.92 10.8427 7.6 10.64 7.376C10.4053 7.10933 10.0587 6.976 9.6 6.976C8.90667 6.976 8.42667 7.22133 8.16 7.712C7.95733 8.08533 7.856 8.64 7.856 9.376V14H4.96V4.656H7.744V5.92H7.776C7.98933 5.51467 8.32 5.17333 8.768 4.896C9.28 4.576 9.86667 4.416 10.528 4.416C11.456 4.416 12.192 4.61333 12.736 5.008C13.216 5.36 13.552 5.888 13.744 6.592C13.9147 7.17867 14 7.936 14 8.864V14Z" fill="#0077B5"/>
</svg>
