<svg width="57" height="57" viewBox="0 0 57 57" fill="none" xmlns="http://www.w3.org/2000/svg">
<mask id="mask0_1_1147" style="mask-type:luminance" maskUnits="userSpaceOnUse" x="0" y="0" width="57" height="57">
<path d="M56.5 0.199951H0.5V56.2H56.5V0.199951Z" fill="white"/>
</mask>
<g mask="url(#mask0_1_1147)">
<mask id="mask1_1_1147" style="mask-type:luminance" maskUnits="userSpaceOnUse" x="0" y="0" width="57" height="57">
<path d="M56.5 0.199951H0.5V56.1999H56.5V0.199951Z" fill="white"/>
</mask>
<g mask="url(#mask1_1_1147)">
<path d="M38.9996 23.125H6.97461V48.85H38.9996V23.125Z" fill="#634C9F"/>
<path d="M39.1748 30.475H46.1748L54.0498 45.525C54.9248 47.1 53.6998 48.85 52.1248 48.85H38.2998" stroke="#1D1D1B" stroke-width="1.5" stroke-miterlimit="10" stroke-linecap="round" stroke-linejoin="round"/>
<path d="M14.8494 54.2749C17.1244 54.2749 19.0494 52.3499 19.0494 49.8999C19.0494 47.4499 17.1244 45.5249 14.8494 45.5249C12.5744 45.5249 10.6494 47.4499 10.6494 49.8999C10.6494 52.3499 12.5744 54.2749 14.8494 54.2749Z" stroke="#1D1D1B" stroke-width="1.5" stroke-miterlimit="10" stroke-linecap="round" stroke-linejoin="round"/>
<path d="M45.6492 54.2749C47.9242 54.2749 49.8492 52.3499 49.8492 49.8999C49.8492 47.4499 47.9242 45.5249 45.6492 45.5249C43.3742 45.5249 41.4492 47.4499 41.4492 49.8999C41.4492 52.3499 43.3742 54.2749 45.6492 54.2749Z" stroke="#1D1D1B" stroke-width="1.5" stroke-miterlimit="10" stroke-linecap="round" stroke-linejoin="round"/>
<path d="M5.22461 43.7749H18.3496" stroke="#1D1D1B" stroke-width="1.5" stroke-miterlimit="10" stroke-linecap="round" stroke-linejoin="round"/>
<path d="M2.59961 39.75H15.7246" stroke="#1D1D1B" stroke-width="1.5" stroke-miterlimit="10" stroke-linecap="round" stroke-linejoin="round"/>
<path d="M41.2742 27.8499C48.4492 27.8499 54.2242 22.0749 54.2242 14.8999C54.2242 7.72495 48.4492 1.94995 41.2742 1.94995C34.0992 1.94995 28.3242 7.72495 28.3242 14.8999C28.3242 21.8999 34.0992 27.8499 41.2742 27.8499Z" fill="#FFB709"/>
<path d="M35.6748 12.6249L40.7498 22.4249L47.9248 8.94995" stroke="#1D1D1B" stroke-width="1.5" stroke-miterlimit="10" stroke-linecap="round" stroke-linejoin="round"/>
</g>
</g>
</svg>
