<svg width="15" height="13" viewBox="0 0 15 13" fill="none" xmlns="http://www.w3.org/2000/svg">
<path d="M13.455 3.02993C13.465 3.11993 13.47 3.25493 13.47 3.43493C13.47 4.47493 13.28 5.49993 12.9 6.50993C12.51 7.56993 11.95 8.50993 11.22 9.32993C10.44 10.2099 9.525 10.8949 8.475 11.3849C7.335 11.9149 6.085 12.1799 4.725 12.1799C3.865 12.1799 3.035 12.0624 2.235 11.8274C1.435 11.5924 0.69 11.2499 0 10.7999C0.26 10.8299 0.51 10.8449 0.75 10.8449C1.45 10.8449 2.1275 10.7299 2.7825 10.4999C3.4375 10.2699 4.03 9.94493 4.56 9.52493C3.89 9.51493 3.2925 9.30993 2.7675 8.90993C2.2425 8.50993 1.88 8.00493 1.68 7.39493C1.88 7.42493 2.075 7.43993 2.265 7.43993C2.565 7.43993 2.835 7.40493 3.075 7.33493C2.605 7.24493 2.185 7.05493 1.815 6.76493C1.445 6.47493 1.1525 6.11743 0.9375 5.69243C0.7225 5.26743 0.615 4.80993 0.615 4.31993V4.27493C1.025 4.51493 1.485 4.64493 1.995 4.66493C1.575 4.39493 1.2425 4.03243 0.9975 3.57743C0.7525 3.12243 0.63 2.63493 0.63 2.11493C0.63 1.55493 0.77 1.03493 1.05 0.554932C1.82 1.50493 2.745 2.25993 3.825 2.81993C4.935 3.38993 6.12 3.70993 7.38 3.77993C7.33 3.52993 7.305 3.29493 7.305 3.07493C7.305 2.51493 7.4425 1.99993 7.7175 1.52993C7.9925 1.05993 8.365 0.687432 8.835 0.412432C9.305 0.137432 9.82 -6.77109e-05 10.38 -6.77109e-05C10.82 -6.77109e-05 11.235 0.0874319 11.625 0.262432C12.015 0.437432 12.35 0.674932 12.63 0.974932C13.34 0.834932 13.99 0.584932 14.58 0.224932C14.47 0.584932 14.2975 0.909932 14.0625 1.19993C13.8275 1.48993 13.55 1.72993 13.23 1.91993C13.8 1.85993 14.39 1.69993 15 1.43993C14.58 2.05993 14.065 2.58993 13.455 3.02993Z" fill="#1DA1F2"/>
</svg>
