<svg width="26" height="26" viewBox="0 0 26 26" fill="none" xmlns="http://www.w3.org/2000/svg">
<g clip-path="url(#clip0_1_1309)">
<path d="M6.65997 5.40804C5.87997 5.40804 5.15631 5.60304 4.48897 5.99304C3.82164 6.38304 3.29297 6.91171 2.90297 7.57904C2.51297 8.24637 2.31797 8.97004 2.31797 9.75004C2.31797 11.5354 2.82931 13.234 3.85197 14.846C4.68397 16.198 5.84531 17.4634 7.33597 18.642C8.67064 19.734 10.2046 20.696 11.938 21.528L12.068 21.58C13.8533 20.7307 15.448 19.7427 16.852 18.616L16.8 18.642C18.2906 17.4634 19.452 16.198 20.284 14.846C21.3066 13.234 21.818 11.5354 21.818 9.75004C21.818 8.97004 21.623 8.24637 21.233 7.57904C20.843 6.91171 20.3143 6.38304 19.647 5.99304C18.9796 5.60304 18.256 5.40804 17.476 5.40804C16.7826 5.40804 16.1283 5.55971 15.513 5.86304C14.8976 6.16637 14.3776 6.58237 13.953 7.11104C13.5283 7.63971 13.2553 8.23337 13.134 8.89204C13.082 9.13471 12.9563 9.33837 12.757 9.50304C12.5576 9.66771 12.328 9.75004 12.068 9.75004C11.808 9.75004 11.5783 9.66771 11.379 9.50304C11.1796 9.33837 11.054 9.13471 11.002 8.89204C10.8806 8.23337 10.6076 7.63971 10.183 7.11104C9.75831 6.58237 9.23831 6.16637 8.62297 5.86304C8.00764 5.55971 7.35331 5.40804 6.65997 5.40804ZM12.068 23.842C11.912 23.8247 11.756 23.79 11.6 23.738C11.5133 23.7034 11.366 23.634 11.158 23.53C9.25131 22.6287 7.50931 21.5454 5.93197 20.28L5.98397 20.332C4.30264 19.0147 2.97664 17.576 2.00597 16.016C0.775307 14.04 0.159973 11.9514 0.159973 9.75004C0.159973 8.57137 0.450306 7.48371 1.03097 6.48704C1.61164 5.49037 2.40031 4.70171 3.39697 4.12104C4.39364 3.54037 5.48131 3.25004 6.65997 3.25004C7.75197 3.25004 8.77031 3.49704 9.71497 3.99104C10.6596 4.48504 11.444 5.15671 12.068 6.00604V6.03204C12.692 5.16537 13.4763 4.48504 14.421 3.99104C15.3656 3.49704 16.384 3.25004 17.476 3.25004C18.6546 3.25004 19.7423 3.54037 20.739 4.12104C21.7356 4.70171 22.5243 5.49037 23.105 6.48704C23.6856 7.48371 23.976 8.57137 23.976 9.75004C23.976 11.9514 23.3606 14.04 22.13 16.016C21.1593 17.576 19.8333 19.0147 18.152 20.332C16.6093 21.5454 14.9366 22.594 13.134 23.478L12.978 23.53C12.562 23.738 12.2586 23.842 12.068 23.842Z" fill="#030712"/>
</g>
<defs>
<clipPath id="clip0_1_1309">
<rect width="26" height="26" fill="white" transform="matrix(1 0 0 -1 0 26)"/>
</clipPath>
</defs>
</svg>
