<svg width="28" height="28" viewBox="0 0 28 28" fill="none" xmlns="http://www.w3.org/2000/svg">
<path d="M22.084 3.83588H3.43597C2.85731 3.83588 2.31597 3.97588 1.81197 4.25588C1.30797 4.53588 0.90664 4.91854 0.607973 5.40388C0.309306 5.88921 0.159973 6.42121 0.159973 6.99988V20.9999C0.159973 21.5785 0.30464 22.1199 0.593973 22.6239C0.883307 23.1279 1.27531 23.5292 1.76997 23.8279C2.26464 24.1265 2.81997 24.2759 3.43597 24.2759H22.084C22.6626 24.2759 23.204 24.1312 23.708 23.8419C24.212 23.5525 24.6133 23.1605 24.912 22.6659C25.2106 22.1712 25.36 21.6159 25.36 20.9999V6.99988C25.36 6.42121 25.2106 5.88921 24.912 5.40388C24.6133 4.91854 24.212 4.53588 23.708 4.25588C23.204 3.97588 22.6626 3.83588 22.084 3.83588ZM3.43597 5.59988H22.084C22.4946 5.59988 22.8306 5.73988 23.092 6.01988C23.3533 6.29988 23.484 6.62654 23.484 6.99988V7.69988L13.46 14.1119C13.2173 14.2239 12.9653 14.2799 12.704 14.2799C12.4426 14.2799 12.1906 14.2239 11.948 14.1119L2.03597 7.69988V6.99988C2.03597 6.58921 2.16664 6.25321 2.42797 5.99188C2.68931 5.73055 3.02531 5.59988 3.43597 5.59988ZM22.084 22.5119H3.43597C3.04397 22.5119 2.71264 22.3672 2.44197 22.0779C2.17131 21.7885 2.03597 21.4665 2.03597 21.1119V9.79988L11.136 15.6239C11.528 15.9412 12.0693 16.0999 12.76 16.0999C13.4506 16.0999 13.992 15.9412 14.384 15.6239L23.484 9.79988V20.9999C23.484 21.4105 23.3533 21.7652 23.092 22.0639C22.8306 22.3625 22.4946 22.5119 22.084 22.5119Z" fill="#111827"/>
</svg>
