<svg width="26" height="26" viewBox="0 0 26 26" fill="none" xmlns="http://www.w3.org/2000/svg">
<g clip-path="url(#clip0_1_1314)">
<path d="M22.182 3.25H1.06997C0.809973 3.28467 0.593306 3.406 0.419973 3.614C0.24664 3.822 0.159973 4.056 0.159973 4.316C0.159973 4.576 0.24664 4.81433 0.419973 5.031C0.593306 5.24767 0.809973 5.37333 1.06997 5.408H5.25597L4.50197 15.002V15.184C4.50197 15.7733 4.71431 16.2803 5.13897 16.705C5.56364 17.1297 6.07064 17.342 6.65997 17.342H19.946C20.466 17.342 20.921 17.1817 21.311 16.861C21.701 16.5403 21.948 16.146 22.052 15.678L24.288 5.902C24.3226 5.694 24.34 5.52933 24.34 5.408C24.34 4.80133 24.132 4.29 23.716 3.874C23.3 3.458 22.7886 3.25 22.182 3.25ZM19.946 15.158H6.65997L7.41397 5.408H22.182L19.946 15.158ZM8.66197 22.75C9.26864 22.75 9.78431 22.5377 10.209 22.113C10.6336 21.6883 10.846 21.1727 10.846 20.566C10.846 19.9593 10.6336 19.448 10.209 19.032C9.78431 18.616 9.26864 18.408 8.66197 18.408C8.07264 18.408 7.56564 18.616 7.14097 19.032C6.71631 19.448 6.50397 19.9593 6.50397 20.566C6.50397 21.1727 6.71631 21.6883 7.14097 22.113C7.56564 22.5377 8.07264 22.75 8.66197 22.75ZM18.412 22.75C19.0186 22.75 19.5343 22.5377 19.959 22.113C20.3836 21.6883 20.596 21.1727 20.596 20.566C20.596 19.9593 20.3836 19.448 19.959 19.032C19.5343 18.616 19.0186 18.408 18.412 18.408C17.8226 18.408 17.3156 18.616 16.891 19.032C16.4663 19.448 16.254 19.9593 16.254 20.566C16.254 21.1727 16.4663 21.6883 16.891 22.113C17.3156 22.5377 17.8226 22.75 18.412 22.75Z" fill="#030712"/>
</g>
<defs>
<clipPath id="clip0_1_1314">
<rect width="26" height="26" fill="white" transform="matrix(1 0 0 -1 0 26)"/>
</clipPath>
</defs>
</svg>
